<svg height="20px" viewBox="-3 0 480 480.00004" width="20px" xmlns="http://www.w3.org/2000/svg"><path d="m464.496094 214.289062c-7.589844-9.070312-18.8125-14.304687-30.640625-14.289062h-1.855469v-112c-.027344-22.082031-17.917969-39.972656-40-40h-202.398438l-10.921874-30.257812c-2.828126-10.472657-12.328126-17.74609425-23.175782-17.742188h-115.503906c-22.082031.0273438-39.9726562 17.917969-40 40v432c.0390625.289062.0898438.574219.160156.855469.039063.363281.105469.726562.191406 1.082031.207032.804688.539063 1.574219.984376 2.277344.121093.175781.128906.402344.257812.578125.125.175781.132812.085937.183594.152343.6875.871094 1.546875 1.59375 2.527344 2.117188.207031.105469.4375.128906.65625.21875.601562.292969 1.238281.507812 1.894531.640625.378906.050781.761719.078125 1.144531.078125h416c3.863281 0 7.175781-2.757812 7.871094-6.558594l41.367187-226.402344v-.046874c2.085938-11.660157-1.117187-23.640626-8.742187-32.703126zm-424.496094-198.289062h115.503906c3.675782-.003906 6.878906 2.5 7.769532 6.0625.0625.265625.144531.523438.230468.800781l12.976563 35.855469c1.144531 3.167969 4.152343 5.28125 7.519531 5.28125h208c13.253906 0 24 10.746094 24 24v112h-40v-48c-.105469-.863281-.277344-1.722656-.511719-2.558594-.089843-.257812-.152343-.503906-.265625-.753906-.386718-.871094-.929687-1.664062-1.597656-2.34375l-64-64c-.679688-.671875-1.476562-1.214844-2.351562-1.601562-.242188-.109376-.480469-.175782-.730469-.261719-.835938-.222657-1.683594-.382813-2.542969-.480469h-176c-22.082031.027344-39.972656 17.917969-40 40v128h-4.183594c-10.578125-.027344-19.917968 6.894531-22.96875 17.023438l-44.847656 151.695312v-376.71875c0-13.253906 10.746094-24 24-24zm272 91.3125 36.6875 36.6875h-28.6875c-4.417969 0-8-3.582031-8-8zm8 52.6875h40v40h-68.910156c-9.796875.019531-18.605469 5.957031-22.289063 15.03125l-17.601562 32.96875h-147.199219v-128c0-13.253906 10.746094-24 24-24h168v40c0 13.253906 10.746094 24 24 24zm137.496094 84.152344-40.167969 219.847656h-398.617187l57.457031-194.351562c1.03125-3.359376 4.136719-5.648438 7.648437-5.648438h172.183594c2.953125 0 5.664062-1.628906 7.054688-4.230469l20.105468-37.601562c.167969-.308594.3125-.628907.433594-.960938 1.175781-3.121093 4.160156-5.191406 7.496094-5.207031h142.765625c7.09375 0 13.820312 3.136719 18.382812 8.566406 4.558594 5.429688 6.484375 12.601563 5.257813 19.585938zm0 0"/><path d="m136 128h32v16h-32zm0 0"/><path d="m184 128h64v16h-64zm0 0"/><path d="m136 160h112v16h-112zm0 0"/><path d="m136 192h128v16h-128zm0 0"/><path d="m264 160h16v16h-16zm0 0"/></svg>