<svg width="20px" height="20px" viewBox="0 0 459.70329 459"  xmlns="http://www.w3.org/2000/svg"><path d="m111 53.351562h156v74h-156zm0 0"/><path d="m51 316.351562v-316h-18.898438c-17.65625.078126-31.96875 14.34375-32.101562 32v296c8.820312-7.878906 20.273438-12.160156 32.101562-12zm0 0"/><path d="m311 208.152344v-207.800782h-244v316h139.800781c9.726563-53.78125 50.820313-96.453124 104.199219-108.199218zm-216-72.800782v-90c.011719-4.414062 3.585938-7.988281 8-8h172c4.414062.011719 7.988281 3.585938 8 8v90c-.011719 4.414063-3.585938 7.988282-8 8h-172c-4.414062-.011718-7.988281-3.585937-8-8zm0 0"/><path d="m340.199219 221.050781c-65.96875.070313-119.429688 53.53125-119.5 119.5-.046875 20.421875 5.1875 40.503907 15.199219 58.300781.300781.5.601562 1 .902343 1.601563 29.058594 50.160156 89.929688 72.230469 144.382813 52.351563 54.457031-19.878907 86.789062-75.976563 76.695312-133.0625-10.097656-57.085938-59.707031-98.691407-117.679687-98.691407zm74.5 194.101563c-1.507813 1.507812-3.566407 2.339844-5.699219 2.300781-2.125-.007813-4.164062-.832031-5.699219-2.300781l-32-32c-27.660156 21.628906-67.375 17.996094-90.648437-8.296875-23.273438-26.289063-22.058594-66.15625 2.769531-90.984375s64.691406-26.039063 90.984375-2.765625c26.289062 23.269531 29.925781 62.988281 8.292969 90.644531l32 32c1.535156 1.5 2.402343 3.554688 2.402343 5.703125 0 2.144531-.867187 4.199219-2.402343 5.699219zm0 0"/><path d="m330.601562 280.75c-22.660156-.007812-42.527343 15.128906-48.527343 36.976562-6.003907 21.847657 3.34375 45.011719 22.828125 56.578126 19.480468 11.566406 44.292968 8.679687 60.597656-7.054688.199219-.199219.398438-.5.601562-.699219.210938-.222656.445313-.425781.699219-.597656 14.011719-14.519531 17.984375-36.011719 10.09375-54.582031-7.890625-18.570313-26.117187-30.625-46.292969-30.621094zm0 0"/><path d="m204.800781 332.351562h-172.699219c-17.398437 0-31.5 14.101563-31.5 31.5 0 17.398438 14.101563 31.5 31.5 31.5h184.097657c-7.707031-17.207031-11.695313-35.847656-11.699219-54.699218 0-2.902344.101562-6.300782.300781-8.300782zm0 0"/></svg>