<svg height="20px" viewBox="0 -16 448 448" width="20px" xmlns="http://www.w3.org/2000/svg"><path d="m369.847656 416 59.753906-224h-411.203124l59.738281 224zm22.152344-216h16v16h-16zm-32 0h16v16h-16zm-32 0h16v16h-16zm8 184h16c4.417969 0 8 3.582031 8 8s-3.582031 8-8 8h-16c-4.417969 0-8-3.582031-8-8s3.582031-8 8-8zm-40-184h16v16h-16zm-32 0h16v16h-16zm-32 0h16v16h-16zm-32 0h16v16h-16zm-32 0h16v16h-16zm-10.910156 93.089844c3.121094-3.125 8.1875-3.125 11.308594 0l39.601562 39.597656 84.847656-84.855469c3.125-3.125 8.195313-3.125 11.320313 0s3.125 8.195313 0 11.320313l-90.511719 90.503906c-3.125 3.121094-8.1875 3.121094-11.3125 0l-45.253906-45.257812c-3.125-3.121094-3.125-8.1875 0-11.308594zm-21.089844-93.089844h16v16h-16zm-32 0h16v16h-16zm-8 184h208c4.417969 0 8 3.582031 8 8s-3.582031 8-8 8h-208c-4.417969 0-8-3.582031-8-8s3.582031-8 8-8zm-40-168h-16v-16h16zm16-16h16v16h-16zm0 0"/><path d="m379.3125 128-93.710938-93.71875c1.5625-3.203125 2.382813-6.71875 2.398438-10.28125 0-13.253906-10.746094-24-24-24s-24 10.746094-24 24 10.746094 24 24 24c3.5625-.015625 7.078125-.835938 10.28125-2.398438l82.40625 82.398438h-265.375l82.398438-82.398438c3.203124 1.566407 6.722656 2.386719 10.289062 2.398438 13.253906 0 24-10.746094 24-24s-10.746094-24-24-24-24 10.746094-24 24c.015625 3.5625.835938 7.078125 2.398438 10.28125l-93.710938 93.71875h-68.6875v48h448v-48zm0 0"/></svg>